<svg version="1" xmlns="http://www.w3.org/2000/svg" width="522.667" height="522.667" viewBox="0 0 392.000000 392.000000"><path d="M218.8 62.9c-.2 4.7-.2 10 0 11.8l.3 3.1 11.7-.1 11.7-.1-.1-10.5c-.1-5.8-.2-11.1-.3-11.7-.1-.8-3.8-1.1-11.5-1.1h-11.5l-.3 8.6zM167.4 70c-.9.8-2.9 2-13.9 8.2-2.7 1.5-4.4 2.8-3.7 2.8.7 0 1.1.4.7 1-.3.5.3 1.8 1.5 3 1.1 1.1 2.1 2.3 2.1 2.7.4 2 2.3 5.3 3.1 5.3.5 0 .7.4.3.9-.3.6.5 2 1.7 3.2 1.3 1.2 1.6 1.8.8 1.4-1.3-.8-1.3-.6-.2.7 1.4 1.7 4.7 1.4 3.6-.3-.3-.5-.2-.8.3-.7 1.2.4 7.3-2.5 7.3-3.4 0-.5.7-.8 1.5-.8s1.5-.5 1.5-1.1c0-.5.5-.7 1-.4.6.3 1 .1 1-.5s.3-.9.8-.6c.9.5 4.4-1.9 4.2-3.1-.1-.4-.7-1.5-1.4-2.3-.6-.8-2.2-3.5-3.5-6-1.3-2.5-3-5.2-3.7-6.1-.8-.8-1.4-2-1.4-2.6 0-1.4-2.5-2.4-3.6-1.3zM292.3 70.1c-1.4 1.8-5.7 10.3-5.4 10.8.2.2-.1.7-.6 1-.5.3-1.8 1.9-3 3.6-2.3 3.3-2.1 3.7 3.3 6.7 1.7 1 3.5 1.4 3.9 1 .5-.4.5-.1.1.5-.6 1.2 0 1.5 2 1.2.4 0 1 .4 1.3.9.6.9 6.6 4.3 7.6 4.2.3 0 .6-.3.7-.8.1-.4.8-1.3 1.5-2s1.3-2 1.3-2.8c0-.8.4-1.4.8-1.4 1 0 3.7-5 3.4-6.3-.1-.4.3-.7 1-.7.6 0 .9-.3.5-.6-.3-.4.1-1.3.9-2.1 1.7-1.7 1.4-3.8-.5-3.8-.6 0-1.5-.5-1.9-1-1-1.4-7.2-4.8-7.2-3.9 0 .4-.7-.1-1.5-1.2-.8-1-1.5-1.5-1.5-1.1 0 .5-.7.1-1.6-.7-.8-.9-1.9-1.4-2.4-1.1-.5.3-1 0-1.2-.6-.3-.8-.7-.7-1.5.2zM222 91.1c0 .3-1.6.5-3.5.4-1.9-.1-3.5.1-3.5.5s-1.3.6-3 .5c-1.6-.1-3 .2-3 .7 0 .5-.9.7-1.9.3-1.1-.3-2.2-.1-2.5.4-.4.5-1.5.8-2.6.6-1.3-.3-1.8 0-1.4.7.5.7.1.9-.9.5s-1.7-.1-1.7.5-.3.8-.7.5c-.3-.4-1.3-.1-2.1.6-1.3 1-1.4.9-.7-.3.5-.9-.1-.7-1.5.5s-2 1.4-1.5.5c.4-.8-.4-.4-2 1s-2.4 1.8-2 1c.7-1.2.6-1.3-.7-.3-.8.7-1.9.9-2.3.5-.5-.4-.4-.1 0 .7.6 1.1.4 1.3-.8.8-.9-.3-1.9-.1-2.3.5-.4.7-.3.8.4.4s1.2-.5 1.2-.2-1 1-2.1 1.7c-1.7.9-2 .8-1.3-.3.4-.7-.1-.6-1.2.4-1 .9-2.2 1.6-2.6 1.5-.3-.1-1 .2-1.5.7-.5.5-.2.6.7.2.8-.4.6 0-.5.8-1.1.9-2.5 1.4-3.2 1.2-.7-.3-1.3.1-1.3.9 0 .7-.5 1.7-1.2 2.1-.7.5-.8.3-.3-.7.5-.8-.4-.2-1.9 1.3-1.6 1.5-3.2 2.6-3.6 2.3-.4-.3-1.4.3-2.1 1.3-1.3 1.6-1.2 1.6.6.2 2-1.4 2-1.4.1.7-1 1.3-2.2 2-2.7 1.7-.4-.2-1.6.7-2.5 2.1-.9 1.3-2.1 2.2-2.7 1.8-.6-.4-.7-.1-.2.6.9 1.5-5.3 8.3-6.8 7.4-.6-.4-.8 0-.4 1 .4 1.1-.1 1.8-1.4 2.2-1 .4-1.7 1.1-1.4 1.6.4.5.1.9-.5.9s-.8.4-.5 1c.3.5.3 1.1-.2 1.1-2.7.4-19.5.4-20.1-.1-.4-.3-1.4-2.5-2.2-5-1.7-5.4-8.7-12.7-15.1-15.8-4.9-2.4-16.7-3.6-18.6-2-.7.6-1.3.7-1.3.3 0-.4-.7-.2-1.5.5s-1.5 1-1.5.6c0-1.4-6.1 2.6-10.4 6.9-4.2 4.3-4.8 4.5-7.8 3.7-6.6-1.8-20.8.2-20.8 3 0 .5-.4.7-.9.3-1.3-.7-11.1 9-11.1 11 0 .8-.4 1.5-.9 1.5-2.5 0-3.2 10.7-3.2 54.8-.1 48.5.1 50.8 4.7 58.2 1.2 1.9 3.2 4.4 4.5 5.6 3.1 2.6 7.9 5.6 7.9 4.9 0-.4.7.1 1.6.9.8.9 2.7 1.6 4.2 1.7 1.5 0 3.8.3 5.2.5 1.3.2 4.9-.1 7.8-.7 4.2-.8 5.7-.8 6.6.2.8.9.8 1-.4.4-.8-.4.3 1.1 2.5 3.4 4.1 4.3 5.1 5 4 2.8-.4-.6 0-.5.7.4 1.6 2 8.7 5.1 9.8 4.4.5-.3 1.1-.1 1.4.3 1.3 2.2 18.6-.6 18.6-2.9 0-.6.4-.8.9-.4.6.3 1.4-.2 1.9-1.1.5-.9 1.1-1.4 1.3-1.3.7.6 6.9-5.4 6.4-6.2-.3-.4.2-1.2 1-1.7.9-.4 2.2-2.8 2.9-5.2l1.3-4.5h9.4c10-.1 12.2.2 11.3 1.6-.3.5.2.9 1.1.9.9 0 1.3.5 1 1-.3.6 0 1.3.9 1.6.9.3 1.2 1.2.9 2.1-.4 1-.2 1.4.4 1 .6-.4 1.7.1 2.4 1 1.2 1.4 1.2 1.6-.1.9-.8-.4-.6 0 .4.8 1.1.9 2.3 1.6 2.8 1.6.4 0 .5.6.2 1.4-.3.9.1 1.3 1.2 1.3 1-.1 2.3.8 2.9 2.1.7 1.2 1.6 2.6 2 3 .5.4.5.1 0-.7-.6-1-.4-1.2.4-.7.7.5 1.6 1.9 2.1 3.2.6 1.5 1.5 2.2 2.5 1.8 1-.4 1.5 0 1.5 1.1 0 .9.5 1.3 1 1 .6-.3 1-.1 1 .5s.5.8 1 .5c.6-.3 1 .1 1 .9s.5 1.8 1.2 2.2c.7.4.8.3.4-.5-.6-.8-.1-.8 1.8 0 1.4.7 2.3 1.6 2 2-.3.5.1.9.9.9s2 .7 2.7 1.5c.7.9 1.8 1.4 2.4 1.2.6-.2 1.7.3 2.4 1.2 1.1 1.3 1.2 1.3.6.1-.5-1 0-.9 1.4.4 1.2 1.1 2.2 1.5 2.2 1.1 0-.5.6-.1 1.3 1 .8 1 1.9 1.5 2.5 1.1 1.3-.8 4.4.3 3.7 1.5-.3.4.4.6 1.5.4 1.1-.2 2 .1 2 .7s.3.8.7.5c.3-.4 1.3-.1 2.1.6 1.3 1 1.4.9.7-.2-.6-1.1-.5-1.2.6-.5 1.3.8 1.9 1 5.4 1.7.8.2 1.7.6 2.1.9.3.4 1.7.4 3 .2s2.4-.1 2.4.4c0 .4 2.4.9 5.3 1 2.8.1 7.7.3 10.7.5 3 .2 6.3 0 7.3-.5 1.2-.6 1.7-.5 1.7.4 0 1 .2 1 .8.1.4-.7 1.8-1.1 3-.8 1.2.2 2.2 0 2.2-.4 0-.5 1.2-.9 2.8-.9 2.3 0 5.4-.6 7.2-1.2.3-.1.9-.2 1.4-.1.4.1 1.5-.4 2.4-1.1 1.3-1.1 1.4-1.1.7.1-.6 1.1-.3 1.1 1.4-.2 1.3-.8 3-1.3 3.9-1 1.1.5 1.3.3.7-.7-.6-1-.3-1.2 1.3-.8 1.2.4 2 .2 1.6-.3-.4-.8 1.7-1.4 3.9-1 .4 0 .7-.4.7-1 0-.5.5-.7 1-.4.6.3 1 .1 1-.5s.5-.8 1-.5c.6.3 1 .1 1-.5s.5-.8 1-.5c.6.3 1 .2 1-.4 0-.6.6-.8 1.4-.5.8.3 1.7 0 2.2-.7.5-.8.3-1-.7-.5-2 1.1 2.2-2.3 4.5-3.6 1.4-.8 1.7-.7 1.1.4-.3.7.2.4 1.2-.8 1-1.1 2.5-1.8 3.2-1.6.8.3 1.1 0 .8-.5-.4-.6.3-1.9 1.6-2.9 2.1-1.9 2.1-1.9.8.1-.7 1.1-.2.8 1.2-.8 1.4-1.5 3.1-2.7 3.6-2.7.6 0 1.5-.9 2.1-2 .6-1.1 1.6-1.7 2.2-1.4.7.4.8.3.4-.5-.4-.6 0-1.4.8-1.7.9-.3 1.3-1 1-1.5-.3-.5.2-.9 1.1-.9.9 0 1.3-.5 1-1-.3-.6-.2-1 .2-1 .5 0 1.8-.7 2.9-1.6 1-.8 1.2-1.3.4-.9-1 .4-.9.2.2-.8 1-.8 1.5-1.7 1.1-2-.3-.4.1-.7 1.1-.7.9 0 1.4-.5 1.1-1-.3-.5-.1-1 .5-1s.8-.5.5-1c-.3-.6.1-1 .9-1s1.3-.6 1.1-1.3c-.3-.6.9-2.7 2.6-4.5 1.6-1.7 2.7-3.7 2.4-4.2-.3-.6-.1-1 .5-1s.8-.4.5-1c-.3-.5-.1-1 .6-1s.9-.3.6-.7c-.4-.3.1-1.2 1.1-2 .9-.8 1-1.1.3-.7-.9.5-.6-.4.7-2.3 1.2-1.7 1.9-3.3 1.5-3.7-.3-.3.2-1.6 1.3-2.8 1.2-1.3 1.3-1.8.4-1.3-1.2.7-1.3.6-.3-.7.7-.8 1-1.8.6-2.1-.3-.4-.1-.7.6-.7s1-.4.6-.9c-.3-.5-.1-1.2.4-1.5.5-.3.7-1.6.3-2.8-.3-1.4-.1-1.9.6-1.4.8.4 1-.3.7-2.4-.2-1.6 0-3 .3-3 .8 0 1.2-3.7 1.5-12 0-3 .6-5.8 1.2-6.2.7-.5.7-.8-.1-.8-.6 0-1-2.5-.9-6.5.1-3.6-.1-6.5-.5-6.5s-.6-1.6-.5-3.6c.1-1.9-.2-3.7-.7-4-.5-.3-.6-1.5-.2-2.6.4-1.5.3-1.8-.7-1.3-.9.6-1.1.2-.7-1.3.4-1.2.2-2.2-.3-2.2-.4 0-.6-.6-.3-1.4.3-.8 0-1.7-.5-2.1-.6-.3-.9-1.1-.6-1.6.4-.5.1-.9-.5-.9s-.9-.4-.6-.8c.3-.5-.1-2-.9-3.5-.7-1.4-1.1-2.8-.7-3.1.3-.3-.3-1.5-1.2-2.5-1-1.1-1.5-2.5-1.1-3.1.3-.6.1-.9-.7-.8-.8.2-1.2-.4-1-1.6.2-1-.1-1.5-.6-1.2-.6.3-1.3-.1-1.6-1-.4-.9-.2-1.3.5-.8.8.4.7 0 0-1.5-.7-1.1-1.4-2.1-1.7-2.1-.3 0-.2.4.1 1 .3.5.4 1 .1 1-.3 0-1-1-1.7-2.1-.9-1.7-.8-2 .3-1.4.7.3.5 0-.4-.8-1-.8-1.5-1.7-1.1-2 .3-.4-.2-.7-1.1-.7-1.2 0-1.6-.5-1.3-1.5.4-.8.1-1.7-.5-2.1-.7-.5-.8-.2-.3.6.5.9.4 1.1-.3.6-.7-.4-1.2-1.1-1.2-1.7 0-.5-1.4-2.2-3.1-3.8-1.7-1.6-3.1-3.3-3.1-3.8 0-.4-.4-.7-.9-.6-.5.2-.8 0-.8-.5.3-1.9-.2-3.3-1-2.7-.6.3-1.5-.4-2.1-1.5-.6-1.1-1.4-1.9-1.8-1.7-.4.3-1.8-.7-3.2-2.1-1.6-1.6-1.8-2-.5-1.1 1.8 1.3 1.9 1.3.6-.3-.7-1-1.7-1.6-2.1-1.3-.4.2-1.6-.3-2.6-1.1-1-.9-1.3-1.2-.5-.8.9.4 1.2.3.7-.4-.4-.6-1.4-.8-2.3-.5-1 .4-1.4.2-1-.4.4-.6-.4-1.4-1.8-1.7-1.4-.4-2.3-1.1-2-1.6.3-.5 0-.7-.7-.5-.8.3-2.2-.2-3.3-1.1-1.1-.8-1.4-1.2-.6-.8.9.5 1.2.3.7-.5-.4-.6-1.1-.9-1.6-.6-.4.2-2-.5-3.6-1.7-1.5-1.3-2.4-1.6-1.9-.8.8 1.3.6 1.3-.8.1-.9-.7-1.7-1-1.7-.5 0 .4-.7-.1-1.6-1.2-.8-1-1.3-1.3-.9-.7.4.9.1 1.1-.9.7-.9-.3-1.3-1-1-1.5.3-.5-.2-.6-1-.3-.9.3-1.6.1-1.6-.4 0-.6-.9-.9-2-.7-1.1.2-2-.1-2-.7 0-.5-.7-.8-1.5-.4-.8.3-1.5.1-1.5-.4s-.9-.7-2-.5c-1.1.2-2 .1-2-.3s-.8-.8-1.7-.9c-2.7-.2-4.6-.8-6.2-1.7-1.1-.7-1.2-.6-.6.5.7 1.1.6 1.2-.6.3-.8-.6-2.4-1-3.6-.8-1.3.2-2.3-.1-2.3-.7 0-.8-.5-.8-1.5.1-.8.7-1.5.8-1.5.4 0-.5-3.6-.9-8-.9s-8 .3-8 .6zM96.6 139.4c1.8 1.4 1.9 3.2 2 58 0 53.7-.1 56.7-1.8 58.6-2.4 2.6-6 2.5-8.4-.1-1.8-1.9-1.8-4.7-1.9-57.6 0-52.5.1-55.8 1.8-58 2.1-2.6 5.4-3 8.3-.9zm-36 12c1.8 1.4 1.9 3.1 2 45.3.1 24.1-.2 44.8-.7 46-1.6 4.2-9.1 4.2-10.5 0-1.1-3.4-1.2-86.8-.1-89.2 1.8-3.8 5.8-4.6 9.3-2.1zm178.9 38c.8.8 1.5 1.9 1.5 2.5 0 .6.3 1.1.8 1.1.8 0 .9 7.3.1 10-.2.8-1.7 2.7-3.2 4.1-3.3 2.9-10.2 3.8-13.9 1.7-1.3-.7-2.6-1.1-3-1-.5.1-.7-.1-.6-.6.1-.4-.5-2.1-1.3-3.7-5-9.6 4.9-20.8 14.9-16.9 1.8.7 3.9 2 4.7 2.8zM344.5 119.8c-2.2 1.4-4.2 2.8-4.5 3.1-.3.3-1.2.7-2 .9-.8.2-1.6.8-1.8 1.3-.2.5-1.1.9-2 .9-2.1.1-6.2 3-4.2 3 .7 0 1 .3.7.7-.4.3.1 1.2 1.1 2 .9.8 1.1 1.2.4.8-.7-.4.2 1.7 2 4.7 1.8 2.9 3.6 5.5 4 5.6.5.2.6.8.2 1.3-.3.5 0 .9.6.9s.9.3.7.7c-.3.5.1 1.4.8 2 1.1 1 1.7 1 2.9-.3.9-.8 1.6-1.3 1.6-1 0 .3 1.5-.5 3.3-1.7 1.8-1.2 5.4-3.3 8-4.7 2.6-1.4 4.7-2.8 4.7-3.1 0-1.1-6.8-12.3-8.7-14.3-1-1.1-1.2-1.6-.5-1.1 1.1.6 1.1.3 0-1.4-1.9-3-2.9-3.1-7.3-.3z"/><path d="M148.9 127.7c-1.3 1.6-1.2 1.7.4.4.9-.7 1.7-1.5 1.7-1.7 0-.8-.8-.3-2.1 1.3zM350.8 191.9c-.2 3.1-.2 8.4 0 11.7l.4 6.2 11.5-.2 11.6-.1.1-11.3c.1-9.3-.1-11.3-1.4-11.6-.8-.2-6.1-.4-11.7-.3h-10.2l-.3 5.6zM339.6 251.5c-.9 1.4-1.4 2.5-1.1 2.5.3 0-.3 1-1.4 2.2-1.1 1.1-1.8 2.5-1.5 3 .3.4.1.8-.5.8-1.3 0-5.4 8.7-4.6 10 .3.5 1.2 1 1.9 1 .8 0 1.9.7 2.6 1.5.7.9 1.5 1.3 1.8 1.1.3-.3 1.7.3 3.2 1.4 1.6 1.1 3.3 2 3.9 2 .6 0 1.1.4 1.1.9s1 1.1 2.3 1.5c2.8.7 2.7.7 2.6 0 0-.4.4-1 .9-1.3.6-.3 1.2-1.3 1.4-2 .2-.8 1.1-2.3 2.1-3.3s1.5-2.3 1.2-2.7c-.2-.5.2-1.2 1.1-1.5.8-.3 1.2-1 .9-1.6-.3-.5-.2-1 .3-1s1.4-1.2 2.1-2.7c1.1-2.3 1-2.9-.5-4-.9-.7-2.1-1-2.5-.7-.5.3-.9.1-.9-.5 0-1.3-5.5-4.2-6.4-3.4-.3.4-.6.2-.6-.3 0-.6-1.7-2-3.9-3.2l-3.9-2.2-1.6 2.5zM160.2 298.2c-.7.7-1.2 1.6-1.2 2.1s-1.3 2.9-3 5.4c-1.6 2.4-3 4.6-3 4.9 0 .3-.9 1.9-2 3.4-1.3 1.8-1.6 3.1-1 3.5.5.3 1 .3 1 0s1 .3 2.2 1.5c1.2 1.1 2.8 2 3.5 2 .7 0 1.3.3 1.3.8 0 .4 1.5 1.3 3.3 2.1 1.7.8 3.4 1.7 3.7 2 .3.3 1.5 1.2 2.7 1.8 1.9 1.1 2.4 1 3.2-.6.6-1 .7-2.1.4-2.5-.3-.3-.1-.6.5-.6s1.7-1.2 2.5-2.8c.7-1.5 2.6-4.9 4.1-7.5 1.5-2.7 2.6-5 2.4-5.2-3-2.5-17.8-10.7-17.8-9.8 0 .4-.4.2-.8-.4-.6-1-1.1-1-2-.1zM299.6 297.9c-.3.4-2.5 1.8-5 3.1s-4.6 2.7-4.6 3.2-.4.6-1 .3c-.5-.3-1-.2-1 .2 0 .5-1.7 1.5-3.7 2.3-2.1.7-3.2 1.5-2.5 1.7.6.3 1 .9.6 1.4-.3.5 0 .9.6.9s.9.4.6.9c-.3.5.1 1.4.9 2.1.8.7 1.5 1.9 1.5 2.6 0 .8.5 1.4 1.1 1.4.5 0 .7.4.4 1-.3.5-.1 1 .4 1 .6 0 1.1.6 1.1 1.3 0 .7 1 2.7 2.3 4.5 2.3 3 2.4 3.1 4.8 1.5 1.3-.9 2.7-2.1 3-2.6.3-.5.9-.8 1.3-.8 2 .3 2.6 0 2-1.1-.4-.6-.3-.8.4-.4.6.3 1.7-.1 2.6-.9.8-.9 1.9-1.6 2.3-1.7.4 0 1.8-.5 3.1-1.1 2.5-1.2 2.9-3.2.8-4.4-.8-.4-1.5-1-1.6-1.3-.6-3.1-1.4-5-2.1-5-.5 0-.9-.7-.9-1.5s-1-2.4-2.2-3.6c-1.3-1.2-1.7-1.9-1-1.4 1.1.6 1.1.3 0-1.4-1.4-2.3-3.5-3.4-4.2-2.2zM218.8 323.9c-.2 3.1-.1 8.4 0 11.8l.4 6.2 11.4-.1c6.3-.1 11.4-.4 11.5-.7.3-2 .4-19.9.1-21.2-.3-1.4-2.1-1.6-11.7-1.6h-11.4l-.3 5.6z"/></svg>