<?xml version="1.0" standalone="no"?>
<!DOCTYPE svg PUBLIC "-//W3C//DTD SVG 20010904//EN"
        "http://www.w3.org/TR/2001/REC-SVG-20010904/DTD/svg10.dtd">
<svg version="1.0" xmlns="http://www.w3.org/2000/svg"
     width="891.000000pt" height="891.000000pt" viewBox="0 0 891.000000 891.000000"
     preserveAspectRatio="xMidYMid meet">
    <metadata>
        Created by potrace 1.14, written by Peter Selinger 2001-2017
    </metadata>
    <g transform="translate(0.000000,891.000000) scale(0.100000,-0.100000)"
       fill="#000000" stroke="none">
        <path d="M5269 8456 c-2 -2 -26 -6 -54 -10 -49 -5 -150 -32 -170 -44 -5 -4
-15 -7 -22 -8 -7 -1 -26 -12 -42 -23 -16 -12 -32 -21 -36 -21 -39 0 -234 -208
-218 -233 3 -6 1 -7 -5 -3 -11 6 -14 0 -11 -20 0 -4 -3 -10 -8 -13 -13 -8 -52
-109 -58 -146 -2 -17 -7 -41 -10 -55 -10 -41 -7 -187 4 -208 6 -11 8 -21 6
-24 -3 -2 0 -20 6 -39 5 -19 12 -42 14 -53 6 -28 73 -153 98 -182 56 -67 131
-134 185 -164 15 -8 29 -18 32 -21 6 -7 82 -37 140 -55 74 -24 233 -28 319
-10 41 9 77 19 80 23 3 5 11 8 16 8 19 1 115 47 115 56 0 5 6 9 14 9 8 0 28
13 45 29 17 16 38 31 46 35 9 3 13 10 10 16 -3 5 0 10 7 10 14 1 84 89 81 102
-2 4 1 8 7 8 5 0 21 23 35 50 14 28 22 50 19 50 -4 0 -2 6 3 13 11 13 29 65
41 114 8 36 7 226 -2 278 -4 22 -11 42 -16 43 -6 2 -8 8 -5 12 16 25 -122 259
-153 260 -7 0 -11 4 -8 8 5 9 -2 16 -69 68 -44 35 -106 69 -117 66 -5 -1 -8 3
-8 8 0 6 -8 10 -18 10 -10 0 -22 4 -27 9 -6 6 -21 11 -35 13 -14 2 -30 6 -35
10 -6 4 -38 9 -70 13 -33 3 -74 8 -91 10 -17 3 -33 3 -35 1z"/>
        <path d="M3455 8443 c-74 -7 -165 -26 -165 -34 0 -6 -4 -7 -10 -4 -5 3 -42
-10 -82 -30 -99 -49 -109 -55 -148 -92 -19 -18 -39 -33 -43 -33 -5 0 -5 -4 -2
-10 3 -5 0 -10 -7 -10 -25 0 -143 -188 -152 -242 -1 -7 -8 -31 -16 -53 -20
-58 -20 -299 1 -330 3 -5 9 -23 13 -40 10 -44 48 -125 58 -125 5 0 6 -5 3 -10
-3 -6 1 -13 9 -16 9 -3 14 -10 11 -14 -3 -5 3 -13 12 -19 10 -6 14 -11 9 -11
-6 0 -1 -9 11 -19 11 -10 28 -30 39 -43 23 -28 114 -103 114 -94 0 4 10 -2 22
-14 12 -11 27 -20 34 -20 7 0 14 -5 16 -10 2 -6 13 -12 26 -13 12 0 22 -6 22
-11 0 -5 3 -6 7 -3 3 4 11 3 17 -2 26 -21 166 -43 248 -38 101 6 160 15 168
26 3 4 12 8 21 8 24 0 79 24 79 35 0 5 5 6 10 3 12 -7 131 74 175 120 37 38
95 112 95 120 0 3 11 23 24 44 14 21 22 42 18 45 -3 4 -1 10 6 15 6 4 21 43
32 87 18 69 22 115 18 242 0 19 -16 89 -25 112 -3 8 -7 20 -8 26 -7 33 -17 54
-25 54 -5 0 -7 7 -4 15 4 8 1 15 -5 15 -6 0 -10 3 -9 8 2 11 -24 62 -33 62 -4
0 -10 8 -13 18 -7 19 -106 131 -106 119 0 -4 -11 3 -24 17 -13 15 -26 26 -30
26 -4 0 -14 7 -23 15 -8 8 -19 13 -24 10 -5 -4 -9 -1 -9 5 0 6 -4 8 -10 5 -5
-3 -10 -2 -10 3 0 22 -149 71 -240 78 -25 2 -49 5 -55 7 -5 1 -23 1 -40 0z"/>
        <path d="M6847 7554 c-1 -1 -29 -5 -62 -9 -32 -3 -64 -9 -69 -13 -6 -3 -19 -7
-31 -8 -37 -4 -134 -52 -201 -100 -66 -47 -174 -166 -174 -191 0 -7 -4 -13 -8
-13 -18 0 -74 -155 -87 -239 -8 -50 -8 -165 -1 -201 3 -14 8 -38 11 -55 8 -40
44 -132 70 -175 88 -153 228 -263 400 -316 90 -27 333 -25 379 3 6 4 19 9 30
10 35 6 153 74 206 119 150 128 232 298 239 494 2 80 -14 191 -37 250 -5 14
-10 27 -10 30 0 10 -57 108 -82 141 -56 75 -183 184 -201 173 -5 -3 -9 -1 -9
5 0 21 -147 75 -235 86 -53 7 -125 12 -128 9z"/>
        <path d="M1908 7525 c-1 -1 -25 -5 -53 -8 -96 -11 -165 -28 -212 -52 -15 -8
-34 -15 -41 -15 -7 0 -10 -4 -7 -10 3 -5 0 -7 -8 -4 -8 3 -17 -2 -21 -11 -3
-9 -10 -14 -15 -10 -6 3 -15 -4 -21 -15 -6 -11 -15 -18 -21 -15 -5 4 -9 1 -9
-4 0 -6 -5 -11 -10 -11 -12 0 -82 -61 -77 -67 2 -2 -11 -20 -30 -39 -19 -20
-32 -39 -29 -42 3 -3 -1 -10 -9 -16 -7 -6 -15 -18 -17 -26 -2 -8 -9 -21 -16
-28 -7 -8 -10 -17 -7 -22 3 -5 0 -10 -5 -12 -6 -2 -12 -13 -13 -26 0 -12 -6
-22 -11 -22 -5 0 -6 -3 -3 -6 3 -4 2 -14 -2 -23 -23 -43 -35 -246 -18 -310 5
-18 10 -43 12 -54 7 -33 38 -112 48 -118 5 -3 8 -9 8 -13 -2 -13 30 -66 40
-66 6 0 8 -4 4 -9 -3 -6 3 -14 12 -20 10 -6 14 -11 8 -11 -5 0 20 -28 56 -62
62 -60 173 -135 208 -140 9 -2 19 -6 22 -11 3 -4 16 -9 28 -12 12 -2 30 -6 39
-9 62 -19 214 -26 287 -14 58 10 155 41 155 49 0 5 3 9 8 8 15 -2 52 14 52 23
0 5 5 6 10 3 6 -3 10 -1 10 4 0 6 7 11 15 11 7 0 19 8 24 18 6 9 11 14 11 10
0 -5 10 1 23 11 45 39 63 56 47 46 -13 -9 -13 -8 -1 8 7 9 20 17 27 17 8 0 14
5 14 11 0 7 8 18 18 26 11 9 12 12 2 8 -8 -4 -3 3 11 16 28 26 64 79 53 79 -4
0 -1 7 6 15 7 8 9 15 4 15 -5 0 -3 4 4 9 7 4 14 14 15 22 2 8 6 19 9 25 4 6 9
21 12 35 3 13 7 34 10 47 14 56 16 71 16 132 0 63 -3 93 -15 155 -3 17 -6 36
-7 43 -1 6 -5 12 -10 12 -4 0 -7 3 -6 8 4 16 -14 72 -23 72 -6 0 -7 5 -4 10 3
6 1 10 -5 10 -6 0 -9 4 -6 8 3 5 -3 18 -14 29 -10 12 -17 23 -14 25 2 3 -7 17
-21 32 -14 15 -25 29 -25 33 0 3 -17 21 -37 41 -20 21 -33 31 -28 23 5 -10 4
-12 -3 -7 -7 4 -12 12 -12 18 0 21 -128 105 -152 100 -5 -1 -8 2 -8 7 0 7 -61
29 -102 37 -5 1 -9 2 -10 4 -6 4 -46 11 -93 16 -27 3 -55 6 -62 9 -6 2 -13 2
-15 0z m-448 -189 c0 -2 -8 -10 -17 -17 -16 -13 -17 -12 -4 4 13 16 21 21 21
13z"/>
        <path d="M4690 6843 c-794 -205 -1407 -793 -1679 -1609 -80 -238 -108 -379
-115 -572 -12 -321 99 -595 309 -762 235 -187 559 -241 860 -144 133 44 233
103 328 197 81 79 160 209 191 313 7 23 2 25 -331 140 -62 22 -113 42 -113 45
0 3 24 24 53 46 28 22 369 282 757 579 388 297 711 544 719 548 10 7 12 2 8
-20 -4 -16 -9 -67 -12 -114 -3 -47 -8 -101 -10 -120 -2 -19 -7 -73 -10 -120
-4 -47 -8 -101 -10 -120 -2 -19 -7 -75 -10 -125 -4 -49 -8 -101 -10 -115 -2
-14 -6 -63 -10 -110 -3 -47 -8 -101 -10 -120 -2 -19 -6 -75 -10 -125 -3 -49
-8 -101 -10 -115 -2 -14 -7 -63 -11 -110 -3 -47 -8 -98 -9 -115 -1 -16 -6 -73
-10 -125 -4 -52 -9 -106 -10 -120 -2 -14 -4 -43 -4 -65 -2 -70 -9 -71 -110
-10 -50 30 -93 55 -94 55 -2 0 -52 29 -113 65 -71 42 -110 61 -113 53 -4 -15
-132 -271 -159 -320 -42 -74 -119 -197 -161 -258 -53 -78 -153 -213 -162 -220
-3 -3 -29 -32 -56 -65 -188 -225 -452 -421 -687 -509 -142 -54 -391 -84 -503
-62 -15 3 -46 8 -68 11 -111 16 -292 81 -408 146 -38 22 -71 39 -73 39 -2 0
-41 26 -86 57 -143 98 -276 211 -398 336 l-47 48 28 -113 c35 -136 43 -204 42
-324 -2 -143 -46 -281 -115 -360 -20 -23 -28 -40 -23 -53 8 -26 190 -201 306
-294 207 -165 451 -303 667 -377 139 -47 316 -86 368 -81 7 1 22 20 34 44 105
201 300 367 519 442 94 32 158 42 306 50 66 4 127 8 135 10 8 1 40 6 70 10 30
4 64 9 75 11 11 2 47 9 79 15 33 6 113 26 178 45 799 229 1419 874 1623 1684
21 85 32 139 50 250 8 53 19 236 18 320 -1 263 -39 502 -119 745 -180 544
-528 979 -1039 1297 -97 60 -280 147 -415 196 -85 31 -306 93 -325 91 -5 -1
-35 -8 -65 -16z"/>
        <path d="M7704 5979 c-134 -18 -272 -86 -369 -184 -93 -93 -102 -105 -146
-199 -104 -224 -79 -483 65 -681 91 -124 255 -230 406 -261 73 -15 208 -15
288 1 104 20 249 104 334 192 57 60 130 172 123 191 -2 7 -1 11 4 8 17 -11 55
147 58 244 4 152 -34 284 -115 402 -142 206 -400 320 -648 287z"/>
        <path d="M1008 5945 c-4 -4 -112 -16 -140 -16 -10 0 -18 -4 -18 -9 0 -5 -9 -7
-20 -5 -11 2 -20 0 -20 -4 0 -4 -6 -8 -12 -8 -30 0 -191 -89 -209 -115 -3 -4
-20 -19 -39 -33 -19 -14 -31 -25 -27 -25 3 0 -4 -10 -16 -23 -29 -29 -60 -73
-59 -81 1 -3 -7 -15 -18 -26 -12 -12 -18 -25 -15 -30 4 -6 2 -10 -3 -10 -9 0
-27 -47 -24 -62 1 -5 -3 -8 -9 -8 -5 0 -8 -4 -4 -9 3 -5 1 -12 -4 -16 -5 -3
-8 -14 -6 -25 2 -11 0 -20 -5 -20 -4 0 -7 -11 -5 -25 1 -14 -1 -27 -5 -30 -12
-7 -3 -225 11 -241 6 -8 8 -14 4 -14 -4 0 -2 -6 4 -13 6 -8 9 -16 6 -19 -7 -6
22 -75 34 -83 6 -3 8 -12 4 -20 -3 -8 0 -15 6 -15 6 0 11 -5 11 -11 0 -17 63
-108 72 -103 4 3 8 1 8 -4 0 -14 61 -82 73 -82 5 0 20 -12 33 -26 13 -14 29
-22 34 -19 6 3 10 2 10 -4 0 -12 96 -62 104 -54 3 4 6 1 6 -5 0 -7 3 -11 8
-11 4 1 10 0 15 -1 4 -1 12 -4 17 -5 6 -1 11 -3 13 -5 3 -2 38 -9 67 -13 14
-2 30 -6 35 -9 6 -3 51 -4 100 -2 79 2 106 6 150 18 6 2 24 6 40 11 17 4 48
17 70 28 22 12 46 22 54 23 7 2 26 15 42 30 16 15 29 24 29 20 0 -4 10 3 23
16 13 13 34 31 47 41 14 10 18 15 10 10 -8 -4 5 13 28 38 40 40 72 87 73 106
0 5 6 15 13 23 12 14 21 33 26 55 1 6 6 16 12 23 6 6 7 12 3 12 -4 0 -2 7 5
15 7 9 10 18 7 22 -4 3 -2 14 4 25 29 54 21 288 -12 349 -4 9 -5 19 -2 23 3 3
1 6 -6 6 -7 0 -9 5 -6 10 3 6 2 10 -4 10 -6 0 -8 7 -5 15 4 8 1 15 -6 15 -6 0
-9 4 -5 10 3 5 -3 18 -13 28 -10 10 -16 24 -14 32 3 7 0 10 -7 6 -6 -4 -11 -1
-11 8 0 22 -147 183 -157 172 -3 -3 -16 7 -29 21 -12 13 -27 22 -32 19 -6 -3
-13 1 -16 9 -3 8 -9 14 -13 13 -4 0 -21 5 -38 12 -16 7 -32 14 -35 14 -3 1
-11 5 -17 9 -7 5 -13 5 -13 0 0 -4 -4 -3 -8 4 -7 11 -44 19 -137 29 -22 2 -45
6 -52 8 -6 3 -13 3 -15 1z"/>
        <path d="M965 4122 c-2 -3 -17 -6 -32 -8 -39 -5 -109 -19 -123 -24 -3 -1 -8
-2 -12 -1 -5 0 -8 -3 -8 -8 0 -5 -7 -12 -16 -15 -10 -4 -13 -2 -8 7 5 6 -9 -1
-31 -17 -21 -16 -35 -23 -30 -15 7 11 5 11 -11 -1 -10 -8 -23 -21 -27 -28 -5
-7 -12 -10 -18 -7 -5 4 -12 -1 -15 -9 -3 -9 -12 -16 -18 -16 -7 0 -27 -18 -45
-40 -18 -22 -37 -38 -42 -34 -5 3 -8 0 -7 -8 2 -7 -3 -12 -9 -10 -7 1 -13 -4
-13 -11 0 -8 -9 -22 -20 -32 -11 -10 -20 -27 -20 -37 0 -11 -4 -16 -10 -13 -6
3 -10 -3 -10 -14 0 -12 -4 -21 -9 -21 -5 0 -12 -12 -17 -27 -10 -36 -9 -33
-23 -68 -39 -92 -45 -255 -16 -375 4 -14 7 -31 7 -37 1 -7 6 -13 11 -13 5 0 7
-7 3 -15 -3 -8 -1 -15 4 -15 6 0 10 -9 10 -20 0 -11 4 -20 10 -20 5 0 9 -3 8
-7 -4 -13 33 -76 56 -96 11 -10 14 -15 6 -11 -8 5 20 -27 63 -69 42 -42 81
-77 87 -77 5 0 10 -5 10 -11 0 -5 5 -7 10 -4 5 3 10 1 10 -4 0 -6 7 -11 15
-11 8 0 15 -5 15 -11 0 -5 4 -8 9 -5 5 3 14 -1 21 -9 7 -8 16 -12 21 -9 5 3 9
0 9 -6 0 -6 5 -8 11 -4 6 3 14 2 18 -5 4 -6 19 -12 34 -13 15 -1 27 -5 27 -9
0 -3 6 -6 13 -6 6 -1 35 -5 62 -9 60 -9 147 -8 195 1 19 4 45 7 58 8 12 0 22
4 22 9 0 4 7 5 15 2 8 -4 15 -1 15 6 0 7 7 10 15 6 8 -3 15 -1 15 5 0 6 5 7
10 4 6 -3 10 -1 10 4 0 6 3 10 8 10 13 -3 72 25 72 34 0 4 4 6 9 2 6 -3 14 3
20 12 6 10 11 14 11 8 0 -10 13 1 90 78 66 65 101 108 95 117 -3 4 2 11 11 14
8 3 12 10 9 16 -3 5 -1 10 5 10 6 0 8 5 5 10 -3 6 -1 10 4 10 6 0 11 8 11 18
0 9 7 25 15 35 7 11 11 25 8 33 -3 8 0 14 7 14 7 0 10 7 6 15 -3 8 -2 15 2 15
4 0 9 12 11 28 6 40 4 243 -2 272 -3 14 -8 36 -11 49 -3 12 -11 30 -18 39 -8
10 -8 13 -1 9 14 -9 -46 105 -61 115 -7 5 -7 8 -1 8 6 0 2 7 -8 14 -10 8 -18
17 -17 20 1 14 -95 116 -110 116 -6 0 -8 5 -5 10 3 6 -1 10 -9 10 -8 0 -20 8
-25 18 -6 9 -11 13 -11 8 0 -6 -7 -1 -16 10 -8 10 -13 14 -9 7 3 -7 -12 -1
-34 14 -22 14 -42 24 -44 22 -3 -2 -15 5 -28 16 -12 11 -19 14 -15 8 5 -9 2
-11 -8 -7 -9 3 -16 10 -16 14 0 5 -8 9 -17 9 -22 0 -68 8 -68 11 0 6 -174 18
-180 12z"/>
        <path d="M549 3933 c-13 -16 -12 -17 4 -4 16 13 21 21 13 21 -2 0 -10 -8 -17
-17z"/>
        <path d="M6750 2554 c-180 -47 -348 -182 -428 -345 -166 -335 -33 -721 306
-889 243 -120 545 -67 742 130 84 84 146 190 176 300 21 80 24 234 5 310 -60
243 -255 439 -491 494 -81 19 -237 19 -310 0z"/>
        <path d="M2168 2118 c-30 -25 -27 -46 11 -106 67 -103 227 -278 303 -330 13
-9 29 -22 37 -30 24 -24 161 -113 227 -148 35 -19 72 -38 82 -44 75 -43 276
-118 402 -149 86 -22 76 -20 200 -27 88 -5 97 -4 115 16 15 16 17 26 9 47 -10
29 -48 45 -135 57 -24 4 -62 11 -84 17 -22 5 -49 12 -61 14 -138 31 -485 185
-542 242 -7 7 -17 13 -22 13 -5 0 -15 6 -22 13 -7 6 -40 32 -73 57 -33 24 -65
49 -72 55 -6 5 -44 39 -84 75 -39 36 -109 102 -154 146 -87 87 -112 102 -137
82z"/>
        <path d="M2072 1928 c-23 -23 -12 -56 48 -140 68 -96 202 -235 292 -305 278
-214 662 -374 925 -387 96 -5 133 10 133 53 0 16 -6 33 -12 39 -7 5 -65 20
-128 32 -120 24 -267 65 -360 102 -119 48 -340 171 -420 235 -8 6 -42 33 -75
60 -74 59 -120 101 -247 226 -99 97 -129 112 -156 85z"/>
        <path d="M1964 1733 c-14 -32 -10 -47 30 -108 173 -262 468 -484 826 -623 209
-80 444 -123 512 -91 52 23 39 99 -16 99 -36 0 -270 57 -368 90 -191 63 -404
182 -577 323 -88 71 -128 107 -257 235 -97 94 -133 112 -150 75z"/>
        <path d="M5317 1663 c-2 -2 -24 -5 -48 -8 -24 -3 -59 -9 -76 -14 -18 -5 -33
-7 -33 -4 0 3 -6 1 -12 -4 -14 -11 -68 -27 -80 -25 -5 1 -8 -2 -8 -7 0 -5 -10
-13 -22 -17 -13 -4 -37 -17 -54 -30 -17 -13 -36 -24 -41 -24 -6 0 -14 -7 -17
-16 -3 -8 -11 -12 -17 -8 -7 4 -9 3 -6 -3 8 -12 -17 -36 -26 -26 -4 3 -7 -1
-7 -9 0 -9 -12 -27 -27 -40 -16 -13 -34 -35 -42 -50 -8 -15 -18 -25 -23 -22
-5 3 -7 2 -6 -3 4 -14 -13 -53 -23 -53 -5 0 -8 -3 -7 -8 2 -4 -4 -25 -14 -47
-24 -57 -31 -77 -34 -100 -2 -11 -7 -31 -10 -45 -9 -31 -8 -176 0 -210 3 -14
8 -34 10 -45 1 -11 8 -33 15 -50 6 -16 17 -43 23 -60 7 -16 22 -47 35 -67 13
-21 21 -38 18 -38 -3 0 3 -9 13 -19 55 -60 67 -75 65 -83 -2 -4 1 -7 5 -5 4 1
20 -9 34 -23 38 -35 48 -42 90 -64 20 -11 34 -24 31 -29 -3 -6 -1 -7 5 -4 13
9 44 -2 37 -13 -3 -4 1 -7 8 -7 14 2 100 -25 107 -33 8 -8 45 -11 155 -12 100
-1 119 2 184 21 19 6 38 8 42 5 5 -3 9 -1 9 4 0 8 48 32 85 43 6 1 16 9 23 16
8 7 18 10 24 7 7 -4 8 -2 4 4 -4 7 -3 12 1 12 12 0 50 29 80 62 14 15 30 25
36 21 6 -3 8 -2 4 3 -3 5 6 23 20 39 14 17 22 24 18 16 -6 -9 -4 -12 4 -7 6 4
9 11 6 16 -3 5 3 18 15 30 11 11 20 22 20 25 0 3 0 9 0 13 0 5 9 18 20 30 12
12 19 22 16 22 -3 0 2 17 11 37 8 21 17 49 19 63 3 14 7 32 10 40 15 38 21
163 10 220 -3 19 -8 46 -10 60 -2 14 -14 51 -26 82 -12 32 -20 59 -19 60 2 2
-5 12 -14 23 -9 11 -16 22 -15 25 2 3 -7 16 -19 29 -12 13 -20 29 -16 34 3 6
1 7 -4 4 -11 -7 -28 20 -24 36 1 5 -3 6 -7 3 -12 -7 -44 28 -35 38 5 4 3 6 -3
4 -6 -1 -27 11 -45 27 -19 17 -46 36 -61 44 -15 8 -25 18 -22 22 3 5 -1 6 -8
4 -8 -3 -23 3 -35 14 -11 11 -23 18 -26 15 -3 -3 -13 -1 -24 5 -26 14 -54 23
-83 28 -13 2 -30 8 -36 14 -6 5 -13 7 -16 4 -3 -3 -33 -1 -66 3 -34 5 -64 7
-65 5z"/>
        <path d="M1872 1548 c-21 -21 -13 -48 33 -118 48 -72 67 -94 209 -241 93 -97
125 -155 111 -197 -15 -49 127 -172 241 -210 94 -32 116 -33 160 -6 51 31 113
31 218 -1 181 -56 372 -78 410 -46 19 16 21 64 4 79 -7 5 -53 18 -103 27 -141
26 -338 82 -420 120 -16 7 -56 25 -87 39 -90 41 -311 175 -338 205 -3 3 -32
28 -65 55 -33 27 -118 107 -189 178 -128 128 -155 145 -184 116z"/>
    </g>
</svg>
